<mxfile host="app.diagrams.net" modified="2024-07-02T08:43:06.878Z" agent="Mozilla/5.0 (Windows NT 10.0; Win64; x64) AppleWebKit/537.36 (KHTML, like Gecko) Chrome/126.0.0.0 Safari/537.36" etag="yRv_PqKl-ZQuUJLabuTv" version="24.5.2" type="device">
  <diagram name="Page-1" id="Pf8Q5FBo1_lb03aeWzeQ">
    <mxGraphModel dx="830" dy="737" grid="1" gridSize="10" guides="1" tooltips="1" connect="1" arrows="1" fold="1" page="1" pageScale="1" pageWidth="827" pageHeight="1169" math="0" shadow="0">
      <root>
        <mxCell id="0" />
        <mxCell id="1" parent="0" />
        <mxCell id="R_TTRrUXYC-mTkjeJqEP-1" value="couche d&#39;entrée1 ; 10 neurones;&lt;div&gt;connecté à la couche de concatenation&lt;/div&gt;" style="rounded=0;whiteSpace=wrap;html=1;" vertex="1" parent="1">
          <mxGeometry x="120" y="510" width="190" height="90" as="geometry" />
        </mxCell>
        <mxCell id="R_TTRrUXYC-mTkjeJqEP-11" style="edgeStyle=orthogonalEdgeStyle;rounded=0;orthogonalLoop=1;jettySize=auto;html=1;entryX=0.5;entryY=1;entryDx=0;entryDy=0;" edge="1" parent="1" source="R_TTRrUXYC-mTkjeJqEP-2" target="R_TTRrUXYC-mTkjeJqEP-3">
          <mxGeometry relative="1" as="geometry" />
        </mxCell>
        <mxCell id="R_TTRrUXYC-mTkjeJqEP-2" value="couche d&#39;entrée2 ; 12 neurones; [entièrement connectée à la couche cachée 1; 1 biais];" style="rounded=0;whiteSpace=wrap;html=1;" vertex="1" parent="1">
          <mxGeometry x="350" y="520" width="190" height="80" as="geometry" />
        </mxCell>
        <mxCell id="R_TTRrUXYC-mTkjeJqEP-12" style="edgeStyle=orthogonalEdgeStyle;rounded=0;orthogonalLoop=1;jettySize=auto;html=1;exitX=0.5;exitY=0;exitDx=0;exitDy=0;entryX=0.5;entryY=1;entryDx=0;entryDy=0;" edge="1" parent="1" source="R_TTRrUXYC-mTkjeJqEP-3" target="R_TTRrUXYC-mTkjeJqEP-4">
          <mxGeometry relative="1" as="geometry" />
        </mxCell>
        <mxCell id="R_TTRrUXYC-mTkjeJqEP-3" value="couche caché n1; 60 neuronnes; entièrement connectée; 1 biais; activation = relu" style="rounded=0;whiteSpace=wrap;html=1;" vertex="1" parent="1">
          <mxGeometry x="320" y="410" width="220" height="70" as="geometry" />
        </mxCell>
        <mxCell id="R_TTRrUXYC-mTkjeJqEP-13" style="edgeStyle=orthogonalEdgeStyle;rounded=0;orthogonalLoop=1;jettySize=auto;html=1;exitX=0.5;exitY=0;exitDx=0;exitDy=0;" edge="1" parent="1" source="R_TTRrUXYC-mTkjeJqEP-4">
          <mxGeometry relative="1" as="geometry">
            <mxPoint x="230" y="290" as="targetPoint" />
          </mxGeometry>
        </mxCell>
        <mxCell id="R_TTRrUXYC-mTkjeJqEP-4" value="couche caché n2; 60 neuronnes; entièrement connectée; 1 biais; activation = relu" style="rounded=0;whiteSpace=wrap;html=1;" vertex="1" parent="1">
          <mxGeometry x="320" y="320" width="220" height="60" as="geometry" />
        </mxCell>
        <mxCell id="R_TTRrUXYC-mTkjeJqEP-10" style="edgeStyle=orthogonalEdgeStyle;rounded=0;orthogonalLoop=1;jettySize=auto;html=1;exitX=0.5;exitY=0;exitDx=0;exitDy=0;entryX=0.5;entryY=1;entryDx=0;entryDy=0;" edge="1" parent="1" source="R_TTRrUXYC-mTkjeJqEP-5" target="R_TTRrUXYC-mTkjeJqEP-6">
          <mxGeometry relative="1" as="geometry" />
        </mxCell>
        <mxCell id="R_TTRrUXYC-mTkjeJqEP-5" value="couche de concaténation; couche entré1 + couche cachée 2; taille de sortie =&amp;nbsp; 71 (10 + 60 + 1) + 1 biais" style="rounded=0;whiteSpace=wrap;html=1;" vertex="1" parent="1">
          <mxGeometry x="110" y="220" width="226" height="60" as="geometry" />
        </mxCell>
        <mxCell id="R_TTRrUXYC-mTkjeJqEP-6" value="couche de sortie1; 1 neurone" style="rounded=0;whiteSpace=wrap;html=1;" vertex="1" parent="1">
          <mxGeometry x="130" y="120" width="120" height="60" as="geometry" />
        </mxCell>
        <mxCell id="R_TTRrUXYC-mTkjeJqEP-7" value="couche de sortie2; 1 neurone" style="rounded=0;whiteSpace=wrap;html=1;" vertex="1" parent="1">
          <mxGeometry x="370" y="120" width="120" height="60" as="geometry" />
        </mxCell>
        <mxCell id="R_TTRrUXYC-mTkjeJqEP-9" style="edgeStyle=orthogonalEdgeStyle;rounded=0;orthogonalLoop=1;jettySize=auto;html=1;exitX=0.5;exitY=0;exitDx=0;exitDy=0;entryX=0.47;entryY=0.971;entryDx=0;entryDy=0;entryPerimeter=0;" edge="1" parent="1" source="R_TTRrUXYC-mTkjeJqEP-1" target="R_TTRrUXYC-mTkjeJqEP-5">
          <mxGeometry relative="1" as="geometry" />
        </mxCell>
        <mxCell id="R_TTRrUXYC-mTkjeJqEP-14" style="edgeStyle=orthogonalEdgeStyle;rounded=0;orthogonalLoop=1;jettySize=auto;html=1;exitX=0.75;exitY=0;exitDx=0;exitDy=0;entryX=0.583;entryY=1;entryDx=0;entryDy=0;entryPerimeter=0;" edge="1" parent="1" source="R_TTRrUXYC-mTkjeJqEP-4" target="R_TTRrUXYC-mTkjeJqEP-7">
          <mxGeometry relative="1" as="geometry" />
        </mxCell>
      </root>
    </mxGraphModel>
  </diagram>
</mxfile>
